# xmcd
#
# Track frame offsets: 
#        150
#        14193
#        25768
#        40727
#        51242
#        63322
#        73495
#        85733
#        97666
#        109107
#        120866
#        131648
#
# Disc length: 1892 seconds
#
# Revision: 0
# Processed by: cddbd v1.5.2PL0 Copyright (c) Steve Scherf et al.
# Submitted via: ExactAudioCopyFreeDBPlugin 1.0
#
DISCID=9c07620c
DTITLE=Wilson Pickett - The Wicked Pickett
DYEAR=1967
DGENRE=Soul
TTITLE0=Mustang Sally
TTITLE1=New Orleans
TTITLE2=Sunny
TTITLE3=Everybody Needs Somebody To Love
TTITLE4=Ooh Poo Pah Doo
TTITLE5=She Ain't Gonna Do Right
TTITLE6=Knock On Wood
TTITLE7=Time Is On My Side
TTITLE8=Up Tight Good Woman
TTITLE9=You Left The Water Running
TTITLE10=Three Time Loser
TTITLE11=Nothing You Can Do
EXTD=
EXTT0=
EXTT1=
EXTT2=
EXTT3=
EXTT4=
EXTT5=
EXTT6=
EXTT7=
EXTT8=
EXTT9=
EXTT10=
EXTT11=
PLAYORDER=
